<svg width="80" height="80" viewBox="0 0 80 80" fill="none" xmlns="http://www.w3.org/2000/svg">
<path d="M12 15C11.6678 19.3095 15.5 25.5 15.5 25.5H48C48 25.5 53.7239 16.6838 50.5 12C48.8101 9.54484 47.2867 9.88568 45.5 7.50001C44.2393 5.81671 43.5 2.50001 43.5 2.50001C43.5 2.50001 35.569 2.2184 30.5 2.50001C21.5 3.00001 12.6701 6.30652 12 15Z" fill="#262626" stroke="black" stroke-width="2"/>
<path d="M23 53V39H40V53H23Z" fill="#FFBC8A" stroke="black" stroke-width="2" stroke-linecap="round"/>
<path d="M41.2946 46.5376C41.3832 46.3985 41.4623 46.2691 41.5321 46.1512C41.5643 46.1594 41.5976 46.1678 41.6317 46.1766C42.1653 46.3129 42.9308 46.5199 43.8506 46.8007C45.6935 47.3633 48.1403 48.2176 50.5781 49.3864C53.0244 50.5594 55.4096 52.0248 57.1704 53.7892C58.9245 55.5469 60 57.5376 60 59.8V77H3V59.8C3 57.5376 4.07551 55.5469 5.82958 53.7892C7.5904 52.0248 9.97558 50.5594 12.4219 49.3864C14.8597 48.2176 17.3065 47.3633 19.1494 46.8007C20.0692 46.5199 20.8347 46.3129 21.3682 46.1766C21.4024 46.1678 21.4357 46.1594 21.4679 46.1512C21.5377 46.2691 21.6168 46.3985 21.7054 46.5376C22.1155 47.1808 22.735 48.0386 23.5761 48.899C25.2568 50.6182 27.8788 52.4 31.5 52.4C35.1212 52.4 37.7432 50.6182 39.4239 48.899C40.265 48.0386 40.8845 47.1808 41.2946 46.5376Z" fill="#5728FF" stroke="black" stroke-width="2"/>
<path d="M46 18C46 18 50 28.0001 46 36C44 40 38 42 31.5 42C25 42 19 40 17 36C13 28 17 19 17 19L40.8 13L46 18Z" fill="#FFBC8A" stroke="black" stroke-width="2"/>
<path d="M50.1333 25.0684C49.3002 24.6823 48 26.057 48 26.057V31C48 31 49.5123 30.8747 50.1333 30.0114C51.1151 28.6464 51.4506 25.6788 50.1333 25.0684Z" fill="#FFBC8A" stroke="black" stroke-width="2"/>
<path d="M12.8667 25.0684C13.6998 24.6823 15 26.057 15 26.057V31C15 31 13.4877 30.8747 12.8667 30.0114C11.8849 28.6464 11.5494 25.6788 12.8667 25.0684Z" fill="#FFBC8A" stroke="black" stroke-width="2"/>
<path d="M15 76.5V66" stroke="black" stroke-width="2"/>
<path d="M48 76.5V66" stroke="black" stroke-width="2"/>
<circle cx="26" cy="27" r="2" fill="black"/>
<circle cx="36" cy="27" r="2" fill="black"/>
<path d="M27 35C27 35 28 36 31 36C34 36 35 35 35 35" stroke="black" stroke-width="2" stroke-linecap="round"/>
<circle cx="62" cy="62" r="15" fill="#09CE34" stroke="white" stroke-width="2"/>
<path d="M59.9997 65.1709L69.1921 55.9785L70.6063 57.3927L59.9997 67.9993L53.6357 61.6354L55.05 60.2212L59.9997 65.1709Z" fill="white"/>
</svg>
