<svg width="80" height="80" viewBox="0 0 80 80" fill="none" xmlns="http://www.w3.org/2000/svg">
<path d="M77.4146 36.4059C76.9672 41.2381 73.7359 43.5973 73.7359 43.5973L69.8451 42.2328L71.136 28.2924L75.1189 28.6612C75.1189 28.6612 77.8621 31.5736 77.4146 36.4059Z" fill="#6E949A" stroke="black" stroke-width="2" stroke-linecap="round" stroke-linejoin="round"/>
<path d="M44.4538 39.8816C55.9317 40.9444 73.7359 43.5973 73.7359 43.5973C73.7359 43.5973 71.0253 40.3335 71.5324 34.8569C72.0395 29.3803 75.3033 26.6697 75.3033 26.6697C75.3033 26.6697 57.3148 26.0083 45.8368 24.9455C34.3588 23.8826 16.5547 21.2297 16.5547 21.2297C16.5547 21.2297 13.2908 23.9404 12.7837 29.4169C12.2766 34.8935 14.9872 38.1573 14.9872 38.1573C14.9872 38.1573 32.9758 38.8188 44.4538 39.8816Z" fill="#C3D4D7" stroke="black" stroke-width="2" stroke-linecap="round" stroke-linejoin="round"/>
<path d="M44.9516 39.9277C44.9516 39.9277 42.2085 37.0153 42.6559 32.183C43.1034 27.3508 46.3347 24.9916 46.3347 24.9916" stroke="black" stroke-width="2" stroke-linecap="round" stroke-linejoin="round"/>
<path d="M40.6286 20.0233C41.7167 22.5975 45.6364 24.9269 45.6364 24.9269C45.6364 24.9269 47.7119 19.6247 46.3934 16.7514C45.1906 14.13 40.6505 12.4139 40.6505 12.4139C40.6505 12.4139 39.4858 17.3194 40.6286 20.0233Z" stroke="black" stroke-width="2" stroke-linecap="round" stroke-linejoin="round"/>
<path d="M52.8559 21.1555C51.3137 23.4862 47.0329 25.0562 47.0329 25.0562C47.0329 25.0562 45.9663 19.463 47.7899 16.8807C49.4537 14.5247 54.2317 13.6715 54.2317 13.6715C54.2317 13.6715 54.4758 18.7074 52.8559 21.1555Z" stroke="black" stroke-width="2" stroke-linecap="round" stroke-linejoin="round"/>
<path d="M66.9838 44.3531C67.5637 49.1713 64.9015 52.1579 64.9015 52.1579L60.8107 51.643L59.1378 37.7433L63.1092 37.2653C63.1092 37.2653 66.404 39.535 66.9838 44.3531Z" fill="#6E949A" stroke="black" stroke-width="2" stroke-linecap="round" stroke-linejoin="round"/>
<path d="M35.4934 54.69C46.9379 53.3126 64.9015 52.1579 64.9015 52.1579C64.9015 52.1579 61.5645 49.5378 60.9073 44.0772C60.2501 38.6166 62.8702 35.2797 62.8702 35.2797C62.8702 35.2797 45.1455 38.4201 33.701 39.7975C22.2565 41.1748 4.2929 42.3296 4.2929 42.3296C4.2929 42.3296 1.67286 45.6666 2.33006 51.1272C2.98726 56.5878 6.32423 59.2078 6.32423 59.2078C6.32423 59.2078 24.0489 56.0674 35.4934 54.69Z" fill="#C3D4D7" stroke="black" stroke-width="2" stroke-linecap="round" stroke-linejoin="round"/>
<path d="M35.9898 54.6302C35.9898 54.6302 32.695 52.3606 32.1151 47.5425C31.5352 42.7243 34.1974 39.7377 34.1974 39.7377" stroke="black" stroke-width="2" stroke-linecap="round" stroke-linejoin="round"/>
<path d="M27.5734 36.082C29.179 38.3695 33.5013 39.8215 33.5013 39.8215C33.5013 39.8215 34.414 34.2011 32.5202 31.6698C30.7924 29.3604 25.9928 28.6386 25.9928 28.6386C25.9928 28.6386 25.8869 33.6793 27.5734 36.082Z" stroke="black" stroke-width="2" stroke-linecap="round" stroke-linejoin="round"/>
<path d="M39.765 34.6147C38.748 37.2179 34.8937 39.6539 34.8937 39.6539C34.8937 39.6539 32.6735 34.4106 33.9126 31.5022C35.0431 28.8488 39.5344 27.0088 39.5344 27.0088C39.5344 27.0088 40.8332 31.8805 39.765 34.6147Z" stroke="black" stroke-width="2" stroke-linecap="round" stroke-linejoin="round"/>
</svg>
